<svg width="49" height="45" viewBox="0 0 49 45" fill="none" xmlns="http://www.w3.org/2000/svg">
<g filter="url(#filter0_d_2077_2)">
<rect x="4" width="41" height="37" rx="10" fill="#886D54"/>
</g>
<mask id="mask0_2077_2" style="mask-type:luminance" maskUnits="userSpaceOnUse" x="14" y="9" width="20" height="20">
<path d="M14 9H34V29H14V9Z" fill="white"/>
</mask>
<g mask="url(#mask0_2077_2)">
<path fill-rule="evenodd" clip-rule="evenodd" d="M24.0328 9C25.2132 9 26.2624 9.98359 26.2624 11.2296V16.8035H31.7704C33.0164 16.8035 34 17.7871 34 19.0331C34 20.2134 33.0164 21.2626 31.7704 21.2626H26.2624V26.7707C26.2624 28.0167 25.2132 29.0002 24.0328 29.0002C22.7868 29.0002 21.8033 28.0167 21.8033 26.7707V21.2626H16.2293C14.9833 21.2626 13.9998 20.2134 13.9998 19.0331C13.9998 17.7871 14.9833 16.8035 16.2293 16.8035H21.8033V11.2296C21.8033 9.98359 22.7868 9 24.0328 9Z" fill="white"/>
</g>
<defs>
<filter id="filter0_d_2077_2" x="0" y="0" width="49" height="45" filterUnits="userSpaceOnUse" color-interpolation-filters="sRGB">
<feFlood flood-opacity="0" result="BackgroundImageFix"/>
<feColorMatrix in="SourceAlpha" type="matrix" values="0 0 0 0 0 0 0 0 0 0 0 0 0 0 0 0 0 0 127 0" result="hardAlpha"/>
<feOffset dy="4"/>
<feGaussianBlur stdDeviation="2"/>
<feComposite in2="hardAlpha" operator="out"/>
<feColorMatrix type="matrix" values="0 0 0 0 0 0 0 0 0 0 0 0 0 0 0 0 0 0 0.25 0"/>
<feBlend mode="normal" in2="BackgroundImageFix" result="effect1_dropShadow_2077_2"/>
<feBlend mode="normal" in="SourceGraphic" in2="effect1_dropShadow_2077_2" result="shape"/>
</filter>
</defs>
</svg>
