<?xml version="1.0" ?><!DOCTYPE svg  PUBLIC '-//W3C//DTD SVG 1.1//EN'  'http://www.w3.org/Graphics/SVG/1.1/DTD/svg11.dtd'><svg height="100%" style="fill-rule:evenodd;clip-rule:evenodd;stroke-linejoin:round;stroke-miterlimit:2;" version="1.1" viewBox="0 0 64 64" width="100%" xml:space="preserve" xmlns="http://www.w3.org/2000/svg" xmlns:serif="http://www.serif.com/" xmlns:xlink="http://www.w3.org/1999/xlink"><g transform="matrix(1,0,0,1,-76,0)"><g id="Artboard1" transform="matrix(1,0,0,1,76,0)"><rect height="64" style="fill:none;" width="64" x="0" y="0"/><path d="M61.25,18C61.25,9.583 54.417,2.75 46,2.75L18,2.75C9.583,2.75 2.75,9.583 2.75,18C2.75,18 2.75,46 2.75,46C2.75,54.417 9.583,61.25 18,61.25C18,61.25 46,61.25 46,61.25C54.417,61.25 61.25,54.417 61.25,46C61.25,46 61.25,18 61.25,18ZM58.75,18L58.75,46C58.75,53.037 53.037,58.75 46,58.75L18,58.75C10.963,58.75 5.25,53.037 5.25,46L5.25,18C5.25,10.963 10.963,5.25 18,5.25L46,5.25C53.037,5.25 58.75,10.963 58.75,18Z"/><g transform="matrix(0.779412,0,0,0.779412,-52.1765,7.05882)"><path d="M108,13.396C97.732,13.396 89.396,21.732 89.396,32C89.396,42.268 97.732,50.604 108,50.604C118.268,50.604 126.604,42.268 126.604,32C126.604,21.732 118.268,13.396 108,13.396ZM108,16.604C116.497,16.604 123.396,23.503 123.396,32C123.396,40.497 116.497,47.396 108,47.396C99.503,47.396 92.604,40.497 92.604,32C92.604,23.503 99.503,16.604 108,16.604Z"/></g><g transform="matrix(0.176471,0,0,0.176471,29.9412,9.35294)"><path d="M108,7.917C94.708,7.917 83.917,18.708 83.917,32C83.917,45.292 94.708,56.083 108,56.083C121.292,56.083 132.083,45.292 132.083,32C132.083,18.708 121.292,7.917 108,7.917ZM108,22.083C113.473,22.083 117.917,26.527 117.917,32C117.917,37.473 113.473,41.917 108,41.917C102.527,41.917 98.083,37.473 98.083,32C98.083,26.527 102.527,22.083 108,22.083Z"/></g></g></g></svg>