<svg width="34" height="33" viewBox="0 0 34 33" fill="none" xmlns="http://www.w3.org/2000/svg">
<mask id="mask0_2014_475" style="mask-type:luminance" maskUnits="userSpaceOnUse" x="0" y="0" width="34" height="33">
<path d="M0 0.0214844H34V32.3656H0V0.0214844Z" fill="white"/>
</mask>
<g mask="url(#mask0_2014_475)">
<path fill-rule="evenodd" clip-rule="evenodd" d="M33.6658 30.1125L23.0355 19.9999C25.1012 17.5403 26.0982 14.4213 25.8222 11.2842C25.5464 8.147 24.018 5.22948 21.5513 3.1303C19.0847 1.03157 15.867 -0.089148 12.5589 -0.00164477C9.25071 0.0861281 6.10344 1.37536 3.76344 3.60152C1.42331 5.82769 0.0680576 8.82167 -0.0241955 11.9686C-0.116199 15.1156 1.06192 18.1765 3.2681 20.5231C5.47454 22.8696 8.5415 24.3236 11.8395 24.5859C15.1373 24.8485 18.4159 23.9 21.0013 21.9349L31.6317 32.0476C31.8452 32.2567 32.1384 32.3748 32.445 32.3748C32.7513 32.3748 33.0447 32.2567 33.258 32.0476L33.666 31.6594C33.8859 31.4565 34.0101 31.1774 34.0101 30.886C34.0101 30.5943 33.8859 30.3154 33.666 30.1123L33.6658 30.1125ZM11.9003 21.8488C9.36409 21.5995 7.02186 20.4439 5.34659 18.6153C3.67159 16.7869 2.78848 14.4215 2.876 11.997C2.96326 9.57299 4.01483 7.27062 5.81771 5.55529C7.62059 3.84021 10.0408 2.83986 12.5892 2.75686C15.1376 2.6736 17.624 3.5137 19.5463 5.10712C21.4686 6.70079 22.6833 8.92894 22.9454 11.3417C23.2435 14.2058 22.1762 17.0463 20.0369 19.0815C17.8976 21.1167 14.9117 22.132 11.9008 21.8483L11.9003 21.8488Z" fill="white"/>
</g>
</svg>
