<svg width="34" height="33" viewBox="0 0 34 33" fill="none" xmlns="http://www.w3.org/2000/svg">
<path fill-rule="evenodd" clip-rule="evenodd" d="M33.6658 30.091L23.0354 19.9784C25.1011 17.5188 26.0981 14.3998 25.8221 11.2627C25.5463 8.12552 24.0179 5.20799 21.5512 3.10882C19.0846 1.01009 15.8669 -0.110632 12.5588 -0.0231291C9.25062 0.0646437 6.10335 1.35387 3.76335 3.58004C1.42321 5.8062 0.067966 8.80018 -0.024287 11.9471C-0.11629 15.0941 1.06183 18.1551 3.26801 20.5016C5.47445 22.8481 8.54141 24.3021 11.8394 24.5644C15.1372 24.827 18.4158 23.8785 21.0012 21.9135L31.6316 32.0261C31.8451 32.2352 32.1383 32.3534 32.4449 32.3534C32.7512 32.3534 33.0446 32.2352 33.2579 32.0261L33.6659 31.6379C33.8858 31.435 34.01 31.1559 34.01 30.8645C34.01 30.5728 33.8856 30.2941 33.6658 30.091ZM11.9002 21.8273C9.36399 21.578 7.02177 20.4224 5.3465 18.5938C3.6715 16.7654 2.78838 14.4001 2.87591 11.9755C2.96317 9.5515 4.01474 7.24914 5.81762 5.5338C7.6205 3.81873 10.0407 2.81838 12.5891 2.73537C15.1375 2.65211 17.6239 3.49221 19.5462 5.08563C21.4685 6.67931 22.6833 8.90746 22.9453 11.3202C23.2435 14.1843 22.1761 17.0248 20.0368 19.06C17.8975 21.0952 14.9111 22.1109 11.9002 21.8273Z" fill="#A98A6D"/>
</svg>
