<svg width="30" height="30" viewBox="0 0 30 30" fill="none" xmlns="http://www.w3.org/2000/svg">
<path d="M2.84272 24.8357C3.18066 26.3105 3.96069 27.62 5.05905 28.5556C6.15742 29.4912 7.51062 29.9997 8.90431 30H21.0893C22.4827 29.9997 23.8361 29.4912 24.9343 28.5556C26.0326 27.62 26.8127 26.3104 27.1506 24.8357L29.9627 12.6049C30.0562 12.1968 29.9719 11.7647 29.7342 11.4338C29.4968 11.1026 29.1325 10.9097 28.7473 10.9107H23.4732L21.2111 1.02499C21.0994 0.552424 20.7653 0.180798 20.3344 0.0500118C19.9034 -0.080774 19.4414 0.0492195 19.1221 0.390955C18.8028 0.73269 18.6749 1.23406 18.7864 1.70659L20.8986 10.9103L9.10061 10.9106L11.2128 1.70686V1.7066C11.3245 1.23403 11.1966 0.732636 10.8773 0.390955C10.558 0.0492208 10.0958 -0.0808135 9.66482 0.0500129C9.2341 0.180839 8.89979 0.552438 8.7881 1.02499L6.52618 10.9107H1.25213C0.865016 10.9099 0.499691 11.1047 0.262541 11.4383C0.0251367 11.7718 -0.0569849 12.2063 0.0396674 12.6149L2.84272 24.8357ZM27.1475 13.638L24.7323 24.1747C24.5295 25.0595 24.0615 25.8452 23.4026 26.4066C22.7437 26.968 21.9316 27.273 21.0956 27.2733H8.91008C8.0741 27.273 7.26206 26.968 6.60314 26.4066C5.94421 25.8452 5.47618 25.0595 5.27345 24.1747L2.8519 13.638H27.1475Z" fill="white"/>
<path d="M10.0013 17.7281C10.0013 18.481 9.44168 19.0915 8.75152 19.0915C8.06109 19.0915 7.50177 18.481 7.50177 17.7281C7.50177 16.9748 8.06113 16.3646 8.75152 16.3646C9.4417 16.3646 10.0013 16.9748 10.0013 17.7281Z" fill="white"/>
<path d="M22.4988 17.7281C22.4988 18.481 21.9392 19.0915 21.249 19.0915C20.5586 19.0915 19.9993 18.481 19.9993 17.7281C19.9993 16.9748 20.5586 16.3646 21.249 16.3646C21.9392 16.3646 22.4988 16.9748 22.4988 17.7281Z" fill="white"/>
</svg>
