<svg width="30" height="30" viewBox="0 0 30 30" fill="none" xmlns="http://www.w3.org/2000/svg">
<path d="M15 30C12.0333 30 9.13319 29.1203 6.66645 27.472C4.19971 25.8238 2.27713 23.4811 1.14181 20.7403C0.00649927 17.9994 -0.290551 14.9834 0.288227 12.0736C0.867006 9.16393 2.29562 6.49119 4.3934 4.3934C6.49119 2.29562 9.16393 0.867006 12.0736 0.288227C14.9834 -0.290551 17.9994 0.00649927 20.7403 1.14181C23.4811 2.27713 25.8238 4.19971 27.472 6.66645C29.1203 9.13319 30 12.0333 30 15C30 18.9783 28.4196 22.7936 25.6066 25.6066C22.7936 28.4196 18.9783 30 15 30ZM15 2.3077C12.4897 2.3077 10.0358 3.05209 7.94854 4.44674C5.8613 5.84139 4.23449 7.82365 3.27384 10.1429C2.31319 12.4621 2.06184 15.0141 2.55158 17.4762C3.04131 19.9382 4.25014 22.1998 6.02519 23.9748C7.80024 25.7499 10.0618 26.9587 12.5239 27.4484C14.9859 27.9382 17.5379 27.6868 19.8571 26.7262C22.1764 25.7655 24.1586 24.1387 25.5533 22.0515C26.9479 19.9642 27.6923 17.5103 27.6923 15C27.6923 11.6338 26.3551 8.40546 23.9748 6.02519C21.5946 3.64492 18.3662 2.3077 15 2.3077Z" fill="white"/>
<path d="M14.9999 16.1539C13.8589 16.1539 12.7435 15.8155 11.7947 15.1816C10.846 14.5477 10.1065 13.6466 9.66987 12.5924C9.23321 11.5382 9.11896 10.3783 9.34157 9.25913C9.56418 8.14001 10.1136 7.11203 10.9205 6.30519C11.7273 5.49835 12.7553 4.94888 13.8744 4.72627C14.9935 4.50367 16.1535 4.61792 17.2077 5.05458C18.2619 5.49124 19.163 6.23069 19.7969 7.17944C20.4308 8.12818 20.7692 9.2436 20.7692 10.3846C20.7692 11.9147 20.1613 13.3822 19.0794 14.4641C17.9975 15.5461 16.53 16.1539 14.9999 16.1539ZM14.9999 6.92311C14.3153 6.92311 13.6461 7.12613 13.0768 7.50649C12.5076 7.88684 12.0639 8.42746 11.8019 9.05998C11.5399 9.69249 11.4714 10.3885 11.6049 11.06C11.7385 11.7314 12.0682 12.3482 12.5523 12.8323C13.0364 13.3164 13.6532 13.6461 14.3246 13.7797C14.9961 13.9132 15.6921 13.8447 16.3246 13.5827C16.9571 13.3207 17.4978 12.877 17.8781 12.3078C18.2585 11.7385 18.4615 11.0693 18.4615 10.3846C18.4615 9.46659 18.0968 8.58614 17.4476 7.93697C16.7985 7.28781 15.918 6.92311 14.9999 6.92311Z" fill="white"/>
<path d="M26.0193 24.2308C25.8592 24.2319 25.7006 24.1996 25.5536 24.136C25.4066 24.0725 25.2744 23.979 25.1655 23.8616C23.9408 22.5257 22.4521 21.4585 20.7937 20.7276C19.1353 19.9967 17.3432 19.618 15.5309 19.6154H14.4693C11.0911 19.6081 7.84266 20.9158 5.41166 23.2616C5.18704 23.4469 4.90066 23.5405 4.60995 23.5235C4.31924 23.5065 4.04571 23.3802 3.84422 23.1699C3.64273 22.9597 3.5282 22.681 3.52358 22.3899C3.51897 22.0987 3.62462 21.8165 3.81935 21.6C6.67613 18.8388 10.4963 17.2992 14.4693 17.3077H15.5309C17.6611 17.3125 19.7674 17.7578 21.7173 18.6156C23.6672 19.4734 25.4187 20.7252 26.8617 22.2923C27.0141 22.4567 27.1154 22.6619 27.1531 22.883C27.1908 23.104 27.1632 23.3312 27.0739 23.5368C26.9846 23.7424 26.8372 23.9176 26.65 24.0408C26.4627 24.1641 26.2435 24.2301 26.0193 24.2308Z" fill="white"/>
</svg>
